<svg id="Layer_1" data-name="Layer 1" xmlns="http://www.w3.org/2000/svg" viewBox="0 0 521.09 543.06"><defs><style>.cls-1{fill:#640d0d;}.cls-2{fill:#cb2027;}</style></defs><title>Untitled-1</title><text x="-7.37" y="-8.31"/><path class="cls-1" d="M266.22,8.31l0.56,98.06,14.66,9.31h8.46l1.69-2.48,9,10.55,21.43,3.72,3.38,5.59,15.23-5.59L348,139.89l9.59-5,9,8.69,9-6.21,2.26,9.93,8.46-11.79,5.64,4.34,5.64-2.48L410,145.47l15.23-9.93,5.08,1.86,7.89-3.72,8.46,1.86L451.2,130,485,149.19l13.54-1.86,4.51,80.06,9.59,9.31v10.55l15.79,26.69L520,298.15l3.38,25.45L514.92,336l3.38,6.83-7.9,2.48-27.07,19.24,1.69-7.45,10.15-4.34v-1.24l-14.66,3.1,2.26-11.79-5.08,4.34-6.77-1.86,5.64,15.52,3.95,3.72-11.28,8.07v6.21L459.09,390l-20.87,11.17v0.62l8.46-3.1-19.74,13.65,9-10.55-9,4.34,3.38-2.48-2.26-2.48-7.33,2.48-1.69-4.34-1.69-.62,2.26,5-0.56,2.48-2.82,3.1,1.13-5.59L410,401.17l6.2,9.93-2.82,3.72,5.64,0.62L410,421l-5.64-6.21L405,425.38,399.88,431l-2.26,1.24,1.69-8.69-1.69,8.69-2.26-5.59L388.6,431l1.69,7.45,5.08-5.59L388.6,447.1l-14.1-1.86,11.84,9.93L379,475l-4.51,1.86,2.26-7.45-5.08,6.21-6.2-8.69,5.08,8.69-5.08,1.24H379l-4.51,13.65,3.38,5-3.38,3.72,11.84,36,5.08,0.62-1.13,4.34,1.69-1.86,2.25,3.1-7.89,4.34-1.13,5.59-13-11.17-22-1.24L322.62,525.3l-11.28-1.24-5.64-20.48-10.15-13-2.82-27.93-13.54-7.45L269,436.55l-8.46-9.31-16.35-42.82-22.56-23.58-4.51,1.24-3.95-10.55-29.33-1.86-6.77-3.1-3.38,5-11.28,1.24-6.77,26.07L143.85,393.1l-9.59-2.48L90.84,358.35,72.23,306.84,55.31,295,9.63,241l-2.26-8.69,140.42,6.21L154,8.31H266.22ZM380.14,499.23L379,483.1l1.13-1.24,1.69-.62L392,535.85Zm6.2-34.76L380.14,480l6.2-21.72,7.89-13-5.64,13Zm13-31.65,1.69-.62v4.34l-5.64,8.69Zm7.33-5.59L401,434.07l3.95-6.83,14.1-6.83Zm16.92-12.41,3.38-2.48-6.2,3.1Zm59.78-50.27-12.41,13,9.59-11.17v-1.86h2.82Z" transform="translate(-7.37 -8.31)"/><polygon class="cls-2" points="338.21 305.46 344.13 323.67 363.27 323.67 347.79 334.93 353.7 353.13 338.21 341.88 322.72 353.13 328.64 334.93 313.15 323.67 332.3 323.67 338.21 305.46"/></svg>